<svg width="162" height="32" viewBox="0 0 360 70" fill="none" xmlns="http://www.w3.org/2000/svg">
<path d="M355.86 21.47C355.86 21.4 355.81 21.35 355.74 21.35C347.92 20.52 341.37 15.45 338.42 8.49C337.63 6.61 337.09 4.6 336.87 2.49C336.87 2.42 336.82 2.37 336.75 2.37C336.68 2.37 336.63 2.42 336.63 2.49C336.41 4.6 335.87 6.61 335.08 8.49C332.13 15.46 325.58 20.52 317.76 21.35C317.69 21.35 317.64 21.41 317.64 21.47C317.64 21.53 317.69 21.59 317.76 21.59C325.58 22.42 332.13 27.49 335.08 34.45C335.87 36.33 336.41 38.34 336.63 40.45C336.63 40.52 336.68 40.57 336.75 40.57C336.82 40.57 336.87 40.52 336.87 40.45C337.09 38.34 337.63 36.33 338.42 34.45C341.37 27.48 347.92 22.42 355.74 21.59C355.81 21.59 355.86 21.53 355.86 21.47Z" fill="#FFD800"/>
<path d="M356.46 6.78C356.46 6.78 356.45 6.75 356.43 6.75C354.38 6.53 352.67 5.21 351.9 3.38C351.69 2.89 351.55 2.36 351.49 1.81C351.49 1.79 351.48 1.78 351.46 1.78C351.44 1.78 351.43 1.79 351.43 1.81C351.37 2.36 351.23 2.89 351.02 3.38C350.25 5.2 348.53 6.53 346.49 6.75C346.47 6.75 346.46 6.76 346.46 6.78C346.46 6.8 346.47 6.81 346.49 6.81C348.54 7.03 350.25 8.35 351.02 10.18C351.23 10.67 351.37 11.2 351.43 11.75C351.43 11.75 351.44 11.78 351.46 11.78C351.48 11.78 351.49 11.77 351.49 11.75C351.55 11.2 351.69 10.67 351.9 10.18C352.67 8.36 354.39 7.03 356.43 6.81C356.45 6.81 356.46 6.8 356.46 6.78Z" fill="#FFD800"/>
<path d="M359.96 38.57C359.96 38.57 359.94 38.52 359.91 38.52C356.43 38.15 353.52 35.9 352.21 32.8C351.86 31.96 351.62 31.07 351.52 30.13C351.52 30.1 351.5 30.08 351.47 30.08C351.44 30.08 351.42 30.1 351.42 30.13C351.32 31.07 351.08 31.96 350.73 32.8C349.42 35.9 346.5 38.15 343.03 38.52C343 38.52 342.98 38.54 342.98 38.57C342.98 38.6 343 38.62 343.03 38.62C346.51 38.99 349.42 41.24 350.73 44.34C351.08 45.18 351.32 46.07 351.42 47.01C351.42 47.01 351.44 47.06 351.47 47.06C351.5 47.06 351.52 47.04 351.52 47.01C351.62 46.07 351.86 45.18 352.21 44.34C353.52 41.24 356.44 38.99 359.91 38.62C359.94 38.62 359.96 38.6 359.96 38.57Z" fill="#FFD800"/>
<path d="M60.39 17.53H70.26L56.54 67.16H46.6L35.26 31.81L23.92 67.16H13.84L0.0400391 17.53H10.26L19.36 51.69L30.35 17.53H40.36L51.42 51.83L60.38 17.53H60.39Z" fill="#F9F9F9"/>
<path d="M104.57 49.95C104.57 60.52 96.8 68.22 86.51 68.22C76.22 68.22 68.45 60.52 68.45 49.95C68.45 39.38 76.22 31.68 86.51 31.68C96.8 31.68 104.57 39.31 104.57 49.95ZM95.26 49.95C95.26 43.44 91.06 40.15 86.51 40.15C81.96 40.15 77.76 43.44 77.76 49.95C77.76 56.46 81.96 59.75 86.51 59.75C91.06 59.75 95.26 56.46 95.26 49.95Z" fill="#F9F9F9"/>
<path d="M130.02 41.96C128.97 41.75 128.06 41.68 127.22 41.68C122.46 41.68 118.33 43.99 118.33 51.41V67.16H109.02V32.72H118.05V37.83C120.15 33.28 124.91 32.44 127.85 32.44C128.62 32.44 129.32 32.51 130.02 32.58V41.96Z" fill="#F9F9F9"/>
<path d="M152.55 47.22L166.62 67.17H155.21L146.11 54.01L142.26 58.07V67.17H132.95V16.48H142.26V45.53L154.16 32.72H166.34L152.55 47.21V47.22Z" fill="#F9F9F9"/>
<path d="M182.33 28.94V32.72H190.1V40.7H182.33V67.16H172.95V40.7H167.21V32.72H172.95V28.8C172.95 21.03 177.85 15.99 185.48 15.99C187.44 15.99 189.33 16.34 190.1 16.69V24.53C189.61 24.39 188.7 24.18 187.16 24.18C185.06 24.18 182.33 25.09 182.33 28.94Z" fill="#F9F9F9"/>
<path d="M226.78 49.95C226.78 60.52 219.01 68.22 208.72 68.22C198.43 68.22 190.66 60.52 190.66 49.95C190.66 39.38 198.43 31.68 208.72 31.68C219.01 31.68 226.78 39.31 226.78 49.95ZM217.47 49.95C217.47 43.44 213.27 40.15 208.72 40.15C204.17 40.15 199.97 43.44 199.97 49.95C199.97 56.46 204.17 59.75 208.72 59.75C213.27 59.75 217.47 56.46 217.47 49.95Z" fill="#F9F9F9"/>
<path d="M252.23 41.96C251.18 41.75 250.27 41.68 249.43 41.68C244.67 41.68 240.54 43.99 240.54 51.41V67.16H231.23V32.72H240.26V37.83C242.36 33.28 247.12 32.44 250.06 32.44C250.83 32.44 251.53 32.51 252.23 32.58V41.96Z" fill="#F9F9F9"/>
<path d="M262.6 49.95C262.6 56.18 266.66 59.68 271.42 59.68C276.18 59.68 278.56 56.53 279.33 53.87L287.52 56.6C285.98 62.34 280.59 68.22 271.42 68.22C261.27 68.22 253.29 60.52 253.29 49.95C253.29 39.38 261.13 31.68 271.14 31.68C280.52 31.68 285.84 37.49 287.31 43.3L278.98 46.1C278.14 43.23 275.97 40.29 271.35 40.29C266.73 40.29 262.6 43.72 262.6 49.95Z" fill="#F9F9F9"/>
<path d="M322.6 57.3C320.85 63.25 315.39 68.22 306.92 68.22C297.47 68.22 289.14 61.43 289.14 49.81C289.14 38.82 297.26 31.68 306.08 31.68C316.72 31.68 323.09 38.47 323.09 49.53C323.09 50.86 322.95 52.26 322.95 52.4H298.31C298.52 56.95 302.37 60.24 306.99 60.24C311.33 60.24 313.71 58.07 314.83 54.99L322.6 57.3ZM313.92 46.02C313.78 42.59 311.54 39.23 306.22 39.23C301.39 39.23 298.73 42.87 298.52 46.02H313.92Z" fill="#F9F9F9"/>
</svg>
